<svg width="512" height="512" viewBox="0 0 512 512" fill="none" xmlns="http://www.w3.org/2000/svg">
  <defs>
    <linearGradient id="bg" x1="40" y1="32" x2="472" y2="480" gradientUnits="userSpaceOnUse">
      <stop stop-color="#ffffff"/>
      <stop offset="1" stop-color="#f5f2ee"/>
    </linearGradient>
    <linearGradient id="lid" x1="162" y1="64" x2="350" y2="182" gradientUnits="userSpaceOnUse">
      <stop stop-color="#f7f7f7"/>
      <stop offset="1" stop-color="#dedede"/>
    </linearGradient>
    <linearGradient id="food" x1="176" y1="112" x2="344" y2="258" gradientUnits="userSpaceOnUse">
      <stop stop-color="#9b4f2e"/>
      <stop offset="1" stop-color="#d38a4a"/>
    </linearGradient>
    <linearGradient id="labelStrip" x1="120" y1="288" x2="392" y2="348" gradientUnits="userSpaceOnUse">
      <stop stop-color="#f6f0e8"/>
      <stop offset="1" stop-color="#efe8df"/>
    </linearGradient>
  </defs>

  <rect width="512" height="512" fill="url(#bg)"/>

  <ellipse cx="256" cy="128" rx="138" ry="108" fill="#ffffff" opacity="0.65"/>
  <path d="M138 132L256 40L374 132" stroke="#ffd11b" stroke-width="14" stroke-linecap="round" stroke-linejoin="round"/>
  <path d="M138 132V296" stroke="#ffd11b" stroke-width="14" stroke-linecap="round"/>
  <path d="M374 132V296" stroke="#ffd11b" stroke-width="14" stroke-linecap="round"/>
  <path d="M138 296L256 388L374 296" stroke="#ffd11b" stroke-width="14" stroke-linecap="round" stroke-linejoin="round"/>
  <path d="M164 348H348" stroke="#ffd11b" stroke-width="10" stroke-linecap="round"/>
  <g opacity="0.95">
    <path d="M163 337V388" stroke="#ffd11b" stroke-width="8"/>
    <path d="M182 337V388" stroke="#ffd11b" stroke-width="8"/>
    <path d="M201 337V388" stroke="#ffd11b" stroke-width="8"/>
    <path d="M220 337V388" stroke="#ffd11b" stroke-width="8"/>
    <path d="M239 337V388" stroke="#ffd11b" stroke-width="8"/>
    <path d="M258 337V388" stroke="#ffd11b" stroke-width="8"/>
    <path d="M277 337V388" stroke="#ffd11b" stroke-width="8"/>
    <path d="M296 337V388" stroke="#ffd11b" stroke-width="8"/>
    <path d="M315 337V388" stroke="#ffd11b" stroke-width="8"/>
    <path d="M334 337V388" stroke="#ffd11b" stroke-width="8"/>
  </g>

  <rect x="86" y="206" width="340" height="128" rx="18" fill="#ffffff" opacity="0.98" stroke="#dddddd" stroke-width="2"/>
  <ellipse cx="256" cy="205" rx="118" ry="68" fill="url(#food)" stroke="#3c2418" stroke-width="6"/>
  <ellipse cx="256" cy="198" rx="96" ry="52" fill="#e28a42" opacity="0.55"/>
  <g opacity="0.95">
    <circle cx="210" cy="183" r="7" fill="#7a1e1a"/>
    <circle cx="230" cy="167" r="6" fill="#d63b2f"/>
    <circle cx="248" cy="189" r="7" fill="#7a1e1a"/>
    <circle cx="270" cy="173" r="6" fill="#d63b2f"/>
    <circle cx="290" cy="188" r="7" fill="#7a1e1a"/>
    <circle cx="312" cy="168" r="6" fill="#d63b2f"/>
    <circle cx="198" cy="203" r="5" fill="#f3d67a"/>
    <circle cx="220" cy="196" r="5" fill="#f3d67a"/>
    <circle cx="238" cy="210" r="5" fill="#f3d67a"/>
    <circle cx="260" cy="195" r="5" fill="#f3d67a"/>
    <circle cx="282" cy="210" r="5" fill="#f3d67a"/>
    <circle cx="304" cy="196" r="5" fill="#f3d67a"/>
    <circle cx="326" cy="204" r="5" fill="#f3d67a"/>
  </g>

  <rect x="104" y="248" width="304" height="62" fill="#1f1f1f"/>
  <path d="M118 279H394" stroke="#f3f3f3" stroke-width="3" opacity="0.85"/>
  <text x="256" y="284" text-anchor="middle" font-family="Georgia, 'Times New Roman', serif" font-size="58" font-weight="700" fill="#ffffff" letter-spacing="1">BRUMELI</text>
  <text x="256" y="346" text-anchor="middle" font-family="Georgia, 'Times New Roman', serif" font-size="26" font-weight="500" fill="#222222">Gourmet</text>

  <g>
    <path d="M172 364H340C360 364 376 380 376 400V410C376 430 360 446 340 446H172C152 446 136 430 136 410V400C136 380 152 364 172 364Z" fill="url(#labelStrip)" stroke="#e2ddd6" stroke-width="2"/>
    <text x="256" y="396" text-anchor="middle" font-family="Arial, Helvetica, sans-serif" font-size="14" fill="#7b7b7b" letter-spacing="2">ESPECIALIDADE CASEIRA</text>
    <text x="256" y="420" text-anchor="middle" font-family="Arial, Helvetica, sans-serif" font-size="12" fill="#999999" letter-spacing="1">BRUMELI GOURMET • ATENDIMENTO ARTESANAL</text>
  </g>
</svg>